<svg width="20" height="20" viewBox="0 0 20 20" fill="none" xmlns="http://www.w3.org/2000/svg">
<path d="M1.66666 4.99999C1.66666 3.42864 1.66666 2.64296 2.15482 2.15481C2.64297 1.66666 3.42865 1.66666 5 1.66666C6.57135 1.66666 7.35702 1.66666 7.84517 2.15481C8.33333 2.64296 8.33333 3.42864 8.33333 4.99999V6.66666C8.33333 8.23801 8.33333 9.02366 7.84517 9.51182C7.35702 9.99999 6.57135 9.99999 5 9.99999C3.42865 9.99999 2.64297 9.99999 2.15482 9.51182C1.66666 9.02366 1.66666 8.23801 1.66666 6.66666V4.99999Z" stroke="white" stroke-width="1.7"/>
<path d="M1.66666 15.8333C1.66666 15.0568 1.66666 14.6685 1.79353 14.3622C1.96269 13.9538 2.28715 13.6293 2.69552 13.4602C3.00181 13.3333 3.3901 13.3333 4.16666 13.3333H5.83333C6.6099 13.3333 6.99818 13.3333 7.30447 13.4602C7.71285 13.6293 8.03731 13.9538 8.20646 14.3622C8.33333 14.6685 8.33333 15.0568 8.33333 15.8333C8.33333 16.6099 8.33333 16.9982 8.20646 17.3045C8.03731 17.7128 7.71285 18.0373 7.30447 18.2065C6.99818 18.3333 6.6099 18.3333 5.83333 18.3333H4.16666C3.3901 18.3333 3.00181 18.3333 2.69552 18.2065C2.28715 18.0373 1.96269 17.7128 1.79353 17.3045C1.66666 16.9982 1.66666 16.6099 1.66666 15.8333Z" stroke="white" stroke-width="1.7"/>
<path d="M11.6667 13.3333C11.6667 11.762 11.6667 10.9763 12.1548 10.4882C12.643 10 13.4287 10 15 10C16.5713 10 17.357 10 17.8452 10.4882C18.3333 10.9763 18.3333 11.762 18.3333 13.3333V15C18.3333 16.5713 18.3333 17.357 17.8452 17.8452C17.357 18.3333 16.5713 18.3333 15 18.3333C13.4287 18.3333 12.643 18.3333 12.1548 17.8452C11.6667 17.357 11.6667 16.5713 11.6667 15V13.3333Z" stroke="white" stroke-width="1.7"/>
<path d="M11.6667 4.16666C11.6667 3.39009 11.6667 3.00181 11.7935 2.69551C11.9627 2.28714 12.2872 1.96268 12.6955 1.79352C13.0018 1.66666 13.3901 1.66666 14.1667 1.66666H15.8333C16.6099 1.66666 16.9982 1.66666 17.3045 1.79352C17.7128 1.96268 18.0373 2.28714 18.2065 2.69551C18.3333 3.00181 18.3333 3.39009 18.3333 4.16666C18.3333 4.94322 18.3333 5.33151 18.2065 5.6378C18.0373 6.04617 17.7128 6.37063 17.3045 6.53979C16.9982 6.66666 16.6099 6.66666 15.8333 6.66666H14.1667C13.3901 6.66666 13.0018 6.66666 12.6955 6.53979C12.2872 6.37063 11.9627 6.04617 11.7935 5.6378C11.6667 5.33151 11.6667 4.94322 11.6667 4.16666Z" stroke="white" stroke-width="1.7"/>
</svg>
