<svg width="32" height="32" viewBox="0 0 32 32" fill="none" xmlns="http://www.w3.org/2000/svg">
<path d="M16 32C24.8366 32 32 24.8366 32 16C32 7.16344 24.8366 0 16 0C7.16344 0 0 7.16344 0 16C0 24.8366 7.16344 32 16 32Z" fill="black"/>
<path d="M4.16604 11.4516H0.664154C0.402518 12.3572 0.201261 13.283 0.100632 14.2289H4.16604V11.4516Z" fill="#009FE3"/>
<path d="M31.9195 14.3094C31.8189 13.3233 31.6176 12.3774 31.356 11.4516H5.49434V14.3094H10.0629V30.8528C10.2843 30.9333 10.5057 31.034 10.7472 31.1145C10.9686 31.195 11.1899 31.2755 11.4314 31.3358C11.4516 31.3358 11.4717 31.3358 11.4717 31.356C11.6931 31.4163 11.9145 31.4767 12.1358 31.5371C12.156 31.5371 12.1761 31.5572 12.2164 31.5572C12.4377 31.6176 12.6591 31.6579 12.8805 31.6981V14.3094H15.4969V31.9799C15.6579 31.9799 15.839 32 16 32C16.2214 32 16.4629 32 16.6843 31.9799C16.7849 31.9799 16.8855 31.9799 16.9862 31.9597C17.0868 31.9597 17.1673 31.9396 17.2679 31.9396C17.5497 31.9195 17.8314 31.8792 18.1132 31.8591V14.3094H31.9195Z" fill="#009FE3"/>
<path d="M0.140884 18.1535C0.140884 18.1132 0.120758 18.073 0.120758 18.0126C0.140884 18.0528 0.140884 18.1132 0.140884 18.1535Z" fill="#009FE3"/>
<path d="M0.261634 18.8377C0.261634 18.8176 0.241508 18.7774 0.241508 18.7572C0.241508 18.7774 0.241508 18.7975 0.261634 18.8377Z" fill="#009FE3"/>
<path d="M0.0603785 17.4289C0.0603785 17.3887 0.0603785 17.3283 0.0402527 17.2881C0.0603785 17.3484 0.0603785 17.3887 0.0603785 17.4289Z" fill="#009FE3"/>
<path d="M4.16604 19.4616V16.6843H0.0201263C0.0201263 16.8855 0.0402521 17.0868 0.0603779 17.288C0.0603779 17.3283 0.0603779 17.3887 0.0805037 17.4289C0.100629 17.6302 0.120755 17.8113 0.140881 18.0126C0.140881 18.0528 0.161007 18.0931 0.161007 18.1534C0.181133 18.3547 0.221384 18.556 0.261636 18.7572C0.261636 18.7773 0.261636 18.8176 0.281762 18.8377C0.322013 19.0591 0.362265 19.2604 0.402516 19.4616H4.16604Z" fill="#009FE3"/>
<path d="M30.5509 9.35849C30.5509 9.37862 30.5711 9.39874 30.5711 9.41887C30.5711 9.39874 30.5711 9.37862 30.5509 9.35849Z" fill="white"/>
<path d="M31.1547 10.8881C31.1547 10.9082 31.1748 10.9283 31.1748 10.9686C31.1748 10.9283 31.1748 10.9082 31.1547 10.8881Z" fill="white"/>
<path d="M5.05157 24.2918H10.083V17.9924H15.5774V14.2088H10.083V11.4717H18.073V20.2667L18.1132 24.2918H22.9635V20.2667V11.4717H31.3359C31.2956 11.3107 31.2352 11.1296 31.1748 10.9685C31.1748 10.9484 31.1547 10.9283 31.1547 10.888C30.9937 10.3849 30.7925 9.90188 30.5711 9.41886C30.5711 9.39873 30.5509 9.37861 30.5509 9.35848C30.2491 8.69433 29.9069 8.07043 29.5245 7.44653H5.05157V24.2918Z" fill="white"/>
</svg>
