<svg width="176" height="55" viewBox="0 0 176 55" fill="none" xmlns="http://www.w3.org/2000/svg">
<g clip-path="url(#clip0_51_1235)">
<path d="M27.5 55C42.6878 55 55 42.6878 55 27.5C55 12.3122 42.6878 0 27.5 0C12.3122 0 0 12.3122 0 27.5C0 42.6878 12.3122 55 27.5 55Z" fill="black"/>
<path d="M7.16038 19.6824H1.14151C0.691826 21.239 0.345914 22.8302 0.172958 24.456H7.16038V19.6824Z" fill="#009FE3"/>
<path d="M54.8616 24.5943C54.6887 22.8994 54.3428 21.2736 53.8931 19.6824H9.4434V24.5943H17.2956V53.0283C17.6761 53.1667 18.0566 53.3396 18.4717 53.478C18.8522 53.6163 19.2327 53.7547 19.6478 53.8585C19.6824 53.8585 19.717 53.8585 19.717 53.8931C20.0975 53.9969 20.478 54.1006 20.8585 54.2044C20.8931 54.2044 20.9277 54.239 20.9969 54.239C21.3774 54.3428 21.7579 54.4119 22.1384 54.4811V24.5943H26.6352V54.9654C26.912 54.9654 27.2233 55 27.5 55C27.8805 55 28.2956 55 28.6761 54.9654C28.8491 54.9654 29.022 54.9654 29.195 54.9308C29.3679 54.9308 29.5063 54.8962 29.6792 54.8962C30.1635 54.8616 30.6478 54.7924 31.1321 54.7579V24.5943H54.8616Z" fill="#009FE3"/>
<path d="M0.242141 31.2013C0.242141 31.1321 0.20755 31.0629 0.20755 30.9591C0.242141 31.0283 0.242141 31.1321 0.242141 31.2013Z" fill="#009FE3"/>
<path d="M0.449684 32.3773C0.449684 32.3428 0.415092 32.2736 0.415092 32.239C0.415092 32.2736 0.415092 32.3082 0.449684 32.3773Z" fill="#009FE3"/>
<path d="M0.103775 29.956C0.103775 29.8868 0.103775 29.783 0.0691833 29.7138C0.103775 29.8176 0.103775 29.8868 0.103775 29.956Z" fill="#009FE3"/>
<path d="M7.16038 33.4497V28.6761H0.0345917C0.0345917 29.022 0.0691829 29.3679 0.103774 29.7138C0.103774 29.783 0.103774 29.8868 0.138365 29.956C0.172956 30.3019 0.207548 30.6132 0.242139 30.9591C0.242139 31.0283 0.27673 31.0975 0.27673 31.2013C0.311321 31.5472 0.380504 31.8931 0.449686 32.239C0.449686 32.2736 0.449686 32.3428 0.484277 32.3774C0.55346 32.7579 0.622642 33.1038 0.691824 33.4497H7.16038Z" fill="#009FE3"/>
<path d="M52.5094 16.0849C52.5094 16.1195 52.544 16.1541 52.544 16.1887C52.544 16.1541 52.544 16.1195 52.5094 16.0849Z" fill="white"/>
<path d="M53.5472 18.7138C53.5472 18.7484 53.5818 18.783 53.5818 18.8522C53.5818 18.783 53.5818 18.7484 53.5472 18.7138Z" fill="white"/>
<path d="M8.68239 41.7516H17.3302V30.9245H26.7736V24.4214H17.3302V19.717H31.0629V34.8333L31.1321 41.7516H39.4686V34.8333V19.717H53.8585C53.7893 19.4402 53.6855 19.1289 53.5818 18.8522C53.5818 18.8176 53.5472 18.783 53.5472 18.7138C53.2704 17.8491 52.9245 17.0189 52.544 16.1887C52.544 16.1541 52.5094 16.1195 52.5094 16.0849C51.9906 14.9434 51.4025 13.8711 50.7453 12.7987H8.68239V41.7516Z" fill="white"/>
</g>
<path d="M82.736 17.036V17.356H72.656V27.596H82V27.916H72.656V39.436H70V17.036H82.736Z" fill="black"/>
<path d="M87.6128 39.436C86.7381 39.436 86.0661 39.244 85.5968 38.86C85.1488 38.476 84.9141 38.092 84.8927 37.708L84.8608 37.164V23.436H87.1007V37.164C87.1007 37.7827 87.2181 38.2627 87.4528 38.604C87.7088 38.924 87.9541 39.0947 88.1888 39.116L88.5728 39.18H89.5648V39.436H87.6128ZM85.0528 19.852C84.7968 19.596 84.6687 19.276 84.6687 18.892C84.6687 18.508 84.7968 18.188 85.0528 17.932C85.3088 17.6547 85.6288 17.516 86.0128 17.516C86.3968 17.516 86.7167 17.6547 86.9727 17.932C87.2501 18.188 87.3888 18.508 87.3888 18.892C87.3888 19.276 87.2501 19.596 86.9727 19.852C86.7167 20.108 86.3968 20.236 86.0128 20.236C85.6288 20.236 85.3088 20.108 85.0528 19.852Z" fill="black"/>
<path d="M104.625 39.436C103.75 39.436 103.078 39.244 102.609 38.86C102.161 38.476 101.926 38.092 101.905 37.708L101.873 37.164V27.116C101.873 25.4307 101.436 24.3533 100.561 23.884C100.113 23.6707 99.5583 23.564 98.897 23.564C97.5317 23.564 96.305 24.108 95.217 25.196C94.129 26.2627 93.585 27.2227 93.585 28.076V39.436H91.345V23.436H93.585V27.084C93.9477 26.1667 94.6197 25.3133 95.601 24.524C96.5823 23.7133 97.6597 23.308 98.833 23.308C100.006 23.308 100.956 23.4253 101.681 23.66C102.428 23.8733 102.972 24.1827 103.313 24.588C103.846 25.2493 104.113 26.1027 104.113 27.148V37.164C104.113 37.7827 104.23 38.2627 104.465 38.604C104.721 38.924 104.977 39.0947 105.233 39.116L105.585 39.18H106.577V39.436H104.625Z" fill="black"/>
<path d="M115.901 39.436H113.245V17.356H107.709V17.036H121.469V17.356H115.901V39.436Z" fill="black"/>
<path d="M129.043 24.812V24.14C128.083 24.524 127.209 25.3027 126.419 26.476C125.63 27.628 125.214 28.716 125.171 29.74V39.436H122.931V23.436H125.171V28.524C125.513 27.2867 126.163 26.124 127.123 25.036C128.083 23.9267 129.171 23.3507 130.387 23.308H130.515C130.942 23.308 131.294 23.4573 131.571 23.756C131.87 24.0333 132.019 24.3853 132.019 24.812C132.019 25.2387 131.87 25.5907 131.571 25.868C131.294 26.1453 130.942 26.284 130.515 26.284C130.089 26.284 129.737 26.1453 129.459 25.868C129.182 25.5907 129.043 25.2387 129.043 24.812Z" fill="black"/>
<path d="M146.518 39.436C145.068 39.436 144.076 39.1587 143.542 38.604C143.052 38.1347 142.806 37.7293 142.806 37.388V36.716C141.761 38.6147 140.086 39.564 137.782 39.564C135.094 39.564 133.569 38.348 133.206 35.916C133.164 35.66 133.142 35.404 133.142 35.148C133.142 34.8707 133.185 34.572 133.27 34.252C133.356 33.932 133.601 33.58 134.006 33.196C134.817 32.428 136.598 31.9587 139.35 31.788C140.033 31.724 140.662 31.692 141.238 31.692C141.814 31.692 142.337 31.7133 142.806 31.756V26.444C142.764 26.4227 142.764 26.3267 142.806 26.156C142.849 25.964 142.806 25.7293 142.678 25.452C142.572 25.1533 142.422 24.8653 142.23 24.588C142.038 24.3107 141.697 24.076 141.206 23.884C140.716 23.6707 140.076 23.564 139.286 23.564C138.497 23.564 137.569 23.7133 136.502 24.012C135.457 24.2893 134.689 24.5667 134.198 24.844L134.07 24.62C135.969 23.7453 137.9 23.308 139.862 23.308C142.06 23.308 143.51 23.7027 144.214 24.492C144.769 25.1107 145.046 25.7613 145.046 26.444V37.164C145.046 37.7827 145.164 38.2627 145.398 38.604C145.654 38.924 145.91 39.0947 146.166 39.116L146.518 39.18H147.51V39.436H146.518ZM138.294 39.308C139.425 39.308 140.438 38.924 141.334 38.156C142.252 37.3667 142.742 36.6093 142.806 35.884V32.012C142.23 31.9693 141.644 31.948 141.046 31.948C140.47 31.948 139.894 31.98 139.318 32.044C137.697 32.236 136.641 32.5987 136.15 33.132C135.66 33.6653 135.414 34.4013 135.414 35.34C135.414 35.5107 135.425 35.7027 135.446 35.916C135.638 38.1773 136.588 39.308 138.294 39.308Z" fill="black"/>
<path d="M156.599 23.564C155.085 23.564 153.815 24.2893 152.791 25.74C151.789 27.1907 151.287 29.196 151.287 31.756C151.287 34.316 151.746 36.2147 152.663 37.452C153.602 38.6893 154.829 39.308 156.343 39.308C158.242 39.308 159.927 38.988 161.399 38.348L161.495 38.572C159.981 39.2333 158.21 39.564 156.183 39.564C154.157 39.564 152.471 38.924 151.127 37.644C149.783 36.364 149.111 34.3907 149.111 31.724C149.111 29.0573 149.815 26.988 151.223 25.516C152.631 24.044 154.423 23.308 156.599 23.308C157.815 23.308 158.935 23.5853 159.959 24.14C161.005 24.6947 161.773 25.5373 162.263 26.668H160.215C159.895 25.6227 159.405 24.844 158.743 24.332C158.103 23.82 157.389 23.564 156.599 23.564Z" fill="black"/>
<path d="M166.918 15.436V31.372L173.958 23.436H174.278L169.062 29.324L175.941 39.436H173.701L167.782 30.732L166.918 31.724V39.436H164.677V15.436H166.918Z" fill="black"/>
<defs>
<clipPath id="clip0_51_1235">
<rect width="55" height="55" fill="white"/>
</clipPath>
</defs>
</svg>
