<svg width="22" height="22" viewBox="0 0 22 22" fill="none" xmlns="http://www.w3.org/2000/svg">
<path d="M8.57466 19.25C9.22103 19.8205 10.0701 20.1667 11 20.1667C11.9299 20.1667 12.779 19.8205 13.4253 19.25M16.5 7.33334C16.5 5.87465 15.9205 4.47571 14.8891 3.44426C13.8576 2.41281 12.4587 1.83334 11 1.83334C9.54131 1.83334 8.14236 2.41281 7.11091 3.44426C6.07946 4.47571 5.5 5.87465 5.5 7.33334C5.5 10.166 4.78543 12.1055 3.98719 13.3883C3.31387 14.4704 2.9772 15.0114 2.98955 15.1624C3.00322 15.3295 3.03862 15.3932 3.17329 15.4931C3.29492 15.5833 3.84321 15.5833 4.93978 15.5833H17.0602C18.1568 15.5833 18.7051 15.5833 18.8267 15.4931C18.9614 15.3932 18.9968 15.3295 19.0105 15.1624C19.0228 15.0114 18.6861 14.4704 18.0128 13.3883C17.2146 12.1055 16.5 10.166 16.5 7.33334Z" stroke="#667085" stroke-width="2" stroke-linecap="round" stroke-linejoin="round"/>
</svg>
