<svg width="20" height="20" viewBox="0 0 20 20" fill="none" xmlns="http://www.w3.org/2000/svg">
<path d="M4.10833 4.10835L7.64166 7.64169M12.3583 12.3584L15.8917 15.8917M15.8917 4.10835L12.3583 7.64169L15.3 4.70002M4.10833 15.8917L7.64166 12.3584M18.3333 10C18.3333 14.6024 14.6024 18.3334 10 18.3334C5.39762 18.3334 1.66666 14.6024 1.66666 10C1.66666 5.39765 5.39762 1.66669 10 1.66669C14.6024 1.66669 18.3333 5.39765 18.3333 10ZM13.3333 10C13.3333 11.841 11.8409 13.3334 10 13.3334C8.15905 13.3334 6.66666 11.841 6.66666 10C6.66666 8.15907 8.15905 6.66669 10 6.66669C11.8409 6.66669 13.3333 8.15907 13.3333 10Z" stroke="#667085" stroke-width="1.7" stroke-linecap="round" stroke-linejoin="round"/>
</svg>
